/* XPM */
static char * off_xpm[] = {
"16 16 79 1",
" 	c None",
".	c #6163AC",
"+	c #6364AF",
"@	c #6465B0",
"#	c #6162AD",
"$	c #6060AB",
"%	c #6060AA",
"&	c #9B9FD4",
"*	c #DFE2F8",
"=	c #EDEFFC",
"-	c #F1F2FD",
";	c #E8EBFB",
">	c #C3C7EB",
",	c #6A6BB2",
"'	c #6062AB",
")	c #BBC0E6",
"!	c #FAFAFE",
"~	c #FBFCFE",
"{	c #EBEEFC",
"]	c #7475B8",
"^	c #8184C2",
"/	c #EEF0FC",
"(	c #F1F3FD",
"_	c #D1D4F1",
":	c #6464AD",
"<	c #9DA1D4",
"[	c #E7EAFB",
"}	c #E9ECFB",
"|	c #DBE0F9",
"1	c #6162AA",
"2	c #999CCF",
"3	c #E3E7FA",
"4	c #E1E4FA",
"5	c #D1D6F4",
"6	c #6364AB",
"7	c #6768AD",
"8	c #D5D9F4",
"9	c #DDE1F9",
"0	c #DFE2F9",
"a	c #E0E3FA",
"b	c #DFE3FA",
"c	c #DEE2F9",
"d	c #DCE0F9",
"e	c #9B9DCF",
"f	c #8F90C6",
"g	c #E2E5FA",
"h	c #E2E6FA",
"i	c #D6DAF2",
"j	c #696AAF",
"k	c #6767AD",
"l	c #D1D3ED",
"m	c #8F90C5",
"n	c #7E7EBA",
"o	c #E0E1F3",
"p	c #6A6AAF",
"q	c #6466AB",
"r	c #F3F5FD",
"s	c #B5B5D9",
"t	c #6969AD",
"u	c #D3D4E9",
"v	c #D8D9EB",
"w	c #D9D9EB",
"x	c #8C8CC1",
"y	c #595974",
"z	c #6E6E81",
"A	c #6A6A80",
"B	c #4C4C75",
"C	c #909090",
"D	c #C1C1C1",
"E	c #BEBEBE",
"F	c #B2B2B2",
"G	c #424242",
"H	c #6A6A6A",
"I	c #A5A5A5",
"J	c #A3A3A3",
"K	c #969696",
"L	c #2C2C2C",
"M	c #6D6D6D",
"N	c #444444",
"      .+@#$     ",
"    %&*=-;>,    ",
"   ')!~~~~~{]   ",
"   ^/(((((((_:  ",
"   <[}}}}}}}|1  ",
"   2|333333456  ",
"   7890aabcde   ",
"    fghhhhhij   ",
"    kl;;;;;m    ",
"     n////op    ",
"     qrrrrs     ",
"     tuvvwx     ",
"      yzzAB     ",
"      CDEFG     ",
"      HIJKL     ",
"       MN       "};
