/* XPM */
static char * on_xpm[] = {
"16 16 63 1",
" 	c None",
".	c #5A5AA6",
"+	c #6A6CB3",
"@	c #6C6EB4",
"#	c #6061AB",
"$	c #5555A2",
"%	c #5A5AA5",
"&	c #9A9DD2",
"*	c #BDC163",
"=	c #CBCE7E",
"-	c #CDD083",
";	c #C7CA76",
">	c #BFC3E6",
",	c #7072B6",
"'	c #5858A4",
")	c #B8BBE2",
"!	c #D7DA9D",
"~	c #E4E5BE",
"{	c #7A7CBC",
"]	c #898BC7",
"^	c #CACD7C",
"/	c #CCCF81",
"(	c #CDD1F0",
"_	c #A4A8D8",
":	c #C6C973",
"<	c #BBBF5F",
"[	c #9C9FD1",
"}	c #C3C66D",
"|	c #C0C469",
"1	c #D1D5F4",
"2	c #6364AB",
"3	c #CED2D4",
"4	c #BEC265",
"5	c #989ACE",
"6	c #9091C7",
"7	c #D2D5F0",
"8	c #5C5CA6",
"9	c #5757A4",
"0	c #CCCFEB",
"a	c #8C8DC3",
"b	c #8383BD",
"c	c #C2C583",
"d	c #CED185",
"e	c #AFB0D6",
"f	c #C5C793",
"g	c #BABE5D",
"h	c #A6A6CF",
"i	c #5C5C87",
"j	c #73739D",
"k	c #72729B",
"l	c #6C6C96",
"m	c #454577",
"n	c #9D9D9D",
"o	c #D0D0D0",
"p	c #CBCBCB",
"q	c #C0C0C0",
"r	c #4A4A4A",
"s	c #737373",
"t	c #ABABAB",
"u	c #A7A7A7",
"v	c #9B9B9B",
"w	c #333333",
"x	c #6D6D6D",
"      .+@#$     ",
"    %&*=-;>,    ",
"   ')!~~~~~;{   ",
"   ]^///////($  ",
"   _:;;;;;;;<$  ",
"   [*}}}}}}|1$  ",
"   234||||4*5   ",
"    6||||||78   ",
"    90:::::a    ",
"     b^^^^c'    ",
"     '--dde     ",
"     $fgggh     ",
"      ijklm     ",
"      nopqr     ",
"      stuvw     ",
"       xr       "};
